<svg width="23" height="23" viewBox="0 0 23 23" fill="none" xmlns="http://www.w3.org/2000/svg">
<path d="M20.2619 10.9524H18.6191V6.57143C18.6191 5.36121 17.6388 4.38094 16.4286 4.38094H12.0476V2.73808C12.0476 1.22665 10.8209 0 9.30951 0C7.79808 0 6.57143 1.22665 6.57143 2.73808V4.38094H2.19049C0.980272 4.38094 0.0109866 5.36116 0.0109866 6.57143L0.0054933 10.7334H1.64286C3.27478 10.7334 4.6 12.0586 4.6 13.6905C4.6 15.3224 3.27478 16.6476 1.64286 16.6476H0.0054933L0 20.8095C0 22.0198 0.980221 23 2.19049 23H6.35242V21.3571C6.35242 19.7252 7.67764 18.4 9.30956 18.4C10.9415 18.4 12.2667 19.7252 12.2667 21.3571V23H16.4286C17.6388 23 18.6191 22.0198 18.6191 20.8095V16.4286H20.2619C21.7734 16.4286 23 15.2019 23 13.6905C23 12.1791 21.7734 10.9524 20.2619 10.9524Z" fill="#0D1923"/>
</svg>
