<svg width="25" height="21" viewBox="0 0 25 21" fill="none" xmlns="http://www.w3.org/2000/svg">
<path d="M23.4974 8.78129C23.3951 8.76503 23.2916 8.75752 23.188 8.75884H5.55097L5.93555 8.58364C6.31146 8.40937 6.65345 8.17219 6.94619 7.88283L11.892 3.03851C12.5434 2.42946 12.6529 1.4497 12.1514 0.717088C11.5678 -0.0635993 10.4485 -0.233107 9.65143 0.338543C9.58703 0.384753 9.52583 0.435123 9.46831 0.489326L0.524617 9.2494C-0.174332 9.93324 -0.174947 11.0425 0.52322 11.7271C0.523667 11.7276 0.52417 11.7281 0.524617 11.7285L9.46831 20.4886C10.1678 21.1718 11.3004 21.1703 11.998 20.4851C12.0529 20.4312 12.1041 20.3738 12.1514 20.3134C12.6529 19.5808 12.5434 18.601 11.892 17.992L6.95513 13.1389C6.69269 12.8815 6.39095 12.6658 6.06076 12.4994L5.52414 12.2629H23.0895C24.0033 12.2961 24.805 11.6709 24.9767 10.7912C25.1348 9.83605 24.4725 8.93623 23.4974 8.78129Z" fill="white"/>
</svg>
