<svg width="27" height="23" viewBox="0 0 27 23" fill="none" xmlns="http://www.w3.org/2000/svg">
<path d="M26.0695 0C19.2218 0 14.7252 1.90003 13.4281 2.5269V2.54217C12.1104 1.95395 7.24627 0 0.786805 0C0.352279 0 0 0.352279 0 0.786805V19.5905C0 20.025 0.352279 20.3773 0.786805 20.3773C7.82599 20.3773 13.0041 22.8816 13.0792 22.9184C13.1895 22.9729 13.3089 23 13.4281 23H13.4281C13.4454 23 13.4627 22.9994 13.4799 22.9982C13.4855 22.9979 13.491 22.9971 13.4966 22.9966C13.5083 22.9956 13.52 22.9945 13.5316 22.993C13.5382 22.9921 13.5448 22.991 13.5513 22.9899C13.5619 22.9883 13.5724 22.9865 13.5829 22.9844C13.5899 22.983 13.5969 22.9813 13.6039 22.9798C13.6138 22.9775 13.6237 22.9751 13.6336 22.9725C13.6408 22.9705 13.6479 22.9684 13.6551 22.9662C13.6647 22.9633 13.6742 22.9603 13.6836 22.957C13.6908 22.9546 13.698 22.952 13.7052 22.9493C13.7144 22.9458 13.7236 22.9421 13.7328 22.9383C13.74 22.9353 13.7471 22.9322 13.7543 22.9289C13.7633 22.9248 13.7721 22.9205 13.7811 22.916C13.788 22.9125 13.795 22.909 13.8019 22.9053C13.8046 22.9039 13.8072 22.9026 13.8099 22.9012C13.8553 22.8759 18.447 20.3773 26.0695 20.3773C26.504 20.3773 26.8563 20.025 26.8563 19.5905V0.786805C26.8563 0.352227 26.504 0 26.0695 0ZM3.12115 4.07518C3.12115 3.85414 3.2141 3.64328 3.37734 3.4942C3.54052 3.34513 3.75862 3.27164 3.97908 3.29157C6.26386 3.49898 8.45375 3.92464 10.4878 4.55681C10.8168 4.65909 11.0411 4.96359 11.0411 5.30816V8.45538C11.0411 8.70548 10.9222 8.94063 10.7209 9.08897C10.5841 9.18973 10.4201 9.24218 10.2543 9.24218C10.176 9.24218 10.0973 9.23054 10.0208 9.20672C8.09219 8.60734 6.01161 8.20334 3.83683 8.0059C3.43152 7.96913 3.12115 7.62928 3.12115 7.22235V4.07518ZM11.0057 18.1306C10.9009 18.4678 10.59 18.6841 10.2545 18.6841C10.1772 18.6841 10.0985 18.6726 10.0208 18.6484C8.09219 18.049 6.01161 17.645 3.83683 17.4476C3.40409 17.4083 3.08506 17.0256 3.12435 16.5929C3.16364 16.1601 3.5466 15.841 3.97903 15.8804C6.26381 16.0878 8.4537 16.5135 10.4877 17.1456C10.9028 17.2747 11.1347 17.7156 11.0057 18.1306ZM11.0057 14.9833C10.9009 15.3206 10.59 15.5368 10.2545 15.5368C10.1772 15.5368 10.0985 15.5253 10.0208 15.5012C8.09219 14.9018 6.01161 14.4978 3.83683 14.3003C3.40409 14.2611 3.08506 13.8784 3.12435 13.4457C3.16364 13.0129 3.5466 12.6938 3.97903 12.7332C6.26381 12.9406 8.4537 13.3663 10.4877 13.9984C10.9028 14.1275 11.1347 14.5684 11.0057 14.9833ZM11.0057 11.8361C10.9009 12.1733 10.59 12.3896 10.2545 12.3896C10.1772 12.3896 10.0985 12.3781 10.0208 12.3539C8.09219 11.7546 6.01161 11.3506 3.83683 11.1531C3.40409 11.1138 3.08506 10.7312 3.12435 10.2984C3.16364 9.86565 3.5466 9.54631 3.97903 9.58597C6.26381 9.79337 8.4537 10.219 10.4877 10.8512C10.9028 10.9802 11.1347 11.4212 11.0057 11.8361ZM22.9932 17.4477C20.8185 17.6451 18.7379 18.0491 16.8093 18.6485C16.7315 18.6726 16.6528 18.6842 16.5755 18.6842C16.24 18.6842 15.9292 18.4679 15.8244 18.1307C15.6955 17.7157 15.9272 17.2748 16.3423 17.1458C18.3764 16.5136 20.5663 16.088 22.851 15.8806C23.2834 15.8413 23.6664 16.1602 23.7057 16.593C23.745 17.0257 23.426 17.4084 22.9932 17.4477ZM22.9932 14.3005C20.8185 14.4979 18.7379 14.9019 16.8093 15.5013C16.7315 15.5254 16.6528 15.5369 16.5755 15.5369C16.24 15.5369 15.9292 15.3207 15.8244 14.9834C15.6955 14.5685 15.9272 14.1276 16.3423 13.9986C18.3764 13.3664 20.5663 12.9407 22.851 12.7333C23.2834 12.6938 23.6664 13.013 23.7057 13.4458C23.745 13.8785 23.426 14.2612 22.9932 14.3005ZM22.9932 11.1532C20.8185 11.3507 18.7379 11.7547 16.8093 12.3541C16.7315 12.3782 16.6528 12.3897 16.5755 12.3897C16.24 12.3897 15.9292 12.1735 15.8244 11.8362C15.6955 11.4213 15.9272 10.9803 16.3423 10.8514C18.3764 10.2192 20.5663 9.79352 22.851 9.58612C23.2834 9.54683 23.6664 9.86581 23.7057 10.2986C23.745 10.7312 23.426 11.1139 22.9932 11.1532ZM22.9932 8.00595C20.8185 8.20339 18.7379 8.60739 16.8093 9.20678C16.7315 9.23091 16.6528 9.24244 16.5755 9.24244C16.24 9.24244 15.9292 9.02618 15.8244 8.68895C15.6955 8.27399 15.9272 7.83307 16.3423 7.70408C18.3764 7.07191 20.5663 6.64625 22.851 6.43885C23.2834 6.3993 23.6664 6.71848 23.7057 7.15133C23.745 7.58402 23.426 7.96667 22.9932 8.00595ZM22.9932 4.85873C20.8185 5.05617 18.7379 5.46017 16.8093 6.05956C16.7315 6.08368 16.6528 6.09522 16.5755 6.09522C16.24 6.09522 15.9292 5.87896 15.8244 5.54173C15.6955 5.12677 15.9272 4.68585 16.3423 4.55686C18.3764 3.92469 20.5663 3.49903 22.851 3.29163C23.2834 3.25229 23.6664 3.57131 23.7057 4.00411C23.745 4.4368 23.426 4.81945 22.9932 4.85873Z" fill="#0D1923"/>
</svg>
