<svg width="17" height="17" viewBox="0 0 17 17" fill="none" xmlns="http://www.w3.org/2000/svg">
<path d="M1.61151 16.9914C1.19472 17.0159 0.784825 16.8757 0.468254 16.6004C-0.156085 15.9651 -0.156085 14.9389 0.468254 14.3035L14.1392 0.473383C14.7886 -0.141326 15.8076 -0.107154 16.4152 0.549772C16.9647 1.14383 16.9967 2.05691 16.4902 2.68883L2.73866 16.6004C2.42617 16.8718 2.02284 17.0117 1.61151 16.9914Z" fill="white"/>
<path d="M15.2666 16.9912C14.8442 16.9894 14.4393 16.8198 14.1394 16.5188L0.468369 2.68859C-0.110049 2.00527 -0.0314101 0.976914 0.644047 0.39171C1.24691 -0.13057 2.13601 -0.13057 2.73882 0.39171L16.4903 14.2219C17.1396 14.8367 17.1731 15.8676 16.5653 16.5244C16.5411 16.5505 16.5162 16.5758 16.4903 16.6002C16.1536 16.8965 15.7105 17.038 15.2666 16.9912Z" fill="white"/>
</svg>
