<svg width="24" height="23" viewBox="0 0 24 23" fill="none" xmlns="http://www.w3.org/2000/svg">
<path d="M23.9372 8.69014C23.7792 8.20417 23.3481 7.86011 22.8402 7.81415L15.9121 7.18517L13.1741 0.774914C12.972 0.30396 12.512 0 12 0C11.488 0 11.0279 0.30396 10.827 0.774914L8.089 7.18517L1.15982 7.81415C0.65188 7.86102 0.221759 8.20508 0.0628207 8.69014C-0.0952018 9.1761 0.0507355 9.70913 0.434897 10.0461L5.67198 14.6382L4.12782 21.4392C4.01485 21.9393 4.20894 22.4564 4.62386 22.7563C4.84689 22.9184 5.10892 22.9993 5.37186 22.9993C5.59782 22.9993 5.82396 22.9393 6.02592 22.8184L12 19.2463L17.973 22.8184C18.4112 23.0802 18.9622 23.0563 19.3762 22.7563C19.7911 22.4564 19.9852 21.9393 19.8722 21.4392L18.3281 14.6382L23.5651 10.0461C23.9491 9.70913 24.0952 9.1772 23.9372 8.69014Z" fill="#FF6F22"/>
</svg>
