<svg width="25" height="25" viewBox="0 0 25 25" fill="none" xmlns="http://www.w3.org/2000/svg">
<path d="M23.6291 9.78582L21.6707 9.53685C21.5092 9.03996 21.3103 8.56077 21.078 8.10555L22.2874 6.54819C22.777 5.91795 22.7197 5.02833 22.1603 4.48665L20.5196 2.84595C19.9727 2.28135 19.0831 2.22509 18.4518 2.71365L16.8965 3.92308C16.4413 3.69078 15.9621 3.49181 15.4642 3.33035L15.2152 1.37506C15.1215 0.59065 14.4558 0 13.6672 0H11.3338C10.5452 0 9.87958 0.59065 9.78582 1.37193L9.53685 3.33035C9.03892 3.49181 8.55973 3.68974 8.1045 3.92308L6.54819 2.71365C5.919 2.22509 5.02938 2.28134 4.48665 2.84074L2.84595 4.48039C2.28135 5.02833 2.22405 5.91795 2.71365 6.54923L3.92308 8.10555C3.68974 8.56077 3.49181 9.03996 3.33035 9.53685L1.37506 9.78582C0.59065 9.87958 0 10.5452 0 11.3338V13.6672C0 14.4558 0.59065 15.1215 1.37193 15.2152L3.33035 15.4642C3.49181 15.9611 3.69078 16.4403 3.92308 16.8955L2.71365 18.4529C2.22405 19.0831 2.28134 19.9727 2.84074 20.5144L4.48144 22.1551C5.02938 22.7187 5.91795 22.7749 6.54923 22.2863L8.10555 21.0769C8.56077 21.3103 9.03996 21.5092 9.53685 21.6697L9.78582 23.6239C9.87958 24.4104 10.5452 25.001 11.3338 25.001H13.6672C14.4558 25.001 15.1215 24.4104 15.2152 23.6291L15.4642 21.6707C15.9611 21.5092 16.4403 21.3103 16.8955 21.078L18.4529 22.2874C19.0831 22.777 19.9727 22.7197 20.5144 22.1603L22.1551 20.5196C22.7197 19.9717 22.777 19.0831 22.2874 18.4518L21.078 16.8955C21.3113 16.4403 21.5103 15.9611 21.6707 15.4642L23.6249 15.2152C24.4093 15.1215 25 14.4558 25 13.6672V11.3338C25.001 10.5452 24.4104 9.87958 23.6291 9.78582ZM12.5005 17.7091C9.62853 17.7091 7.29197 15.3725 7.29197 12.5005C7.29197 9.62853 9.62853 7.29197 12.5005 7.29197C15.3725 7.29197 17.7091 9.62853 17.7091 12.5005C17.7091 15.3725 15.3725 17.7091 12.5005 17.7091Z" fill="white"/>
</svg>
